<svg version="1.2" xmlns="http://www.w3.org/2000/svg" viewBox="0 0 1792 1792" width="1792" height="1792">
	<title>refresh-svg</title>
	<style>
		.s0 { fill: #ffffff } 
	</style>
	<g id="g4">
		<path id="path6" class="s0" d="m1632.5 1046.2q0 5-1 7-64 268-268 434.5-204 166.5-478 166.5-146 0-282.5-55-136.5-55-243.5-157l-129 129q-19 19-45 19-26 0-45-19-19-19-19-45v-448q0-26 19-45 19-19 45-19h448q26 0 45 19 19 19 19 45 0 26-19 45l-137 137q71 66 161 102 90 36 187 36 134 0 250-65 116-65 186-179 11-17 53-117 8-23 30-23h192q13 0 22.5 9.5 9.5 9.5 9.5 22.5zm25-800v448q0 26-19 45-19 19-45 19h-448q-26 0-45-19-19-19-19-45 0-26 19-45l138-138q-148-137-349-137-134 0-250 65-116 65-186 179-11 17-53 117-8 23-30 23h-199q-13 0-22.5-9.5-9.5-9.5-9.5-22.5v-7q65-268 270-434.5 205-166.5 480-166.5 146 0 284 55.5 138 55.5 245 156.5l130-129q19-19 45-19 26 0 45 19 19 19 19 45z"/>
	</g>
</svg>